HIERARCHY
ROOT hip
{
  OFFSET 0 0 0
  CHANNELS 6 Xposition Yposition Zposition Zrotation Yrotation Xrotation
  JOINT abdomen
  {
    OFFSET 0 20.6881 -0.73152
    CHANNELS 3 Zrotation Xrotation Yrotation
    JOINT chest
    {
      OFFSET 0 11.7043 -0.48768
      CHANNELS 3 Zrotation Xrotation Yrotation
      JOINT neck
      {
        OFFSET 0 22.1894 -2.19456
        CHANNELS 3 Zrotation Xrotation Yrotation
        JOINT head
        {
          OFFSET -0.24384 7.07133 1.2192
          CHANNELS 3 Zrotation Xrotation Yrotation
          JOINT leftEye
          {
            OFFSET 4.14528 8.04674 8.04672
            CHANNELS 3 Zrotation Xrotation Yrotation
            End Site
            {
              OFFSET 1 0 0
            }
          }
          JOINT rightEye
          {
            OFFSET -3.6576 8.04674 8.04672
            CHANNELS 3 Zrotation Xrotation Yrotation
            End Site
            {
              OFFSET 1 0 0
            }
          }
        }
      }
      JOINT rCollar
      {
        OFFSET -2.68224 19.2634 -4.8768
        CHANNELS 3 Zrotation Xrotation Yrotation
        JOINT rShldr
        {
          OFFSET -8.77824 -1.95073 1.46304
          CHANNELS 3 Zrotation Xrotation Yrotation
          JOINT rForeArm
          {
            OFFSET -28.1742 -1.7115 0.48768
            CHANNELS 3 Zrotation Xrotation Yrotation
            JOINT rHand
            {
              OFFSET -22.5879 0.773209 7.07136
              CHANNELS 3 Zrotation Xrotation Yrotation
              JOINT rThumb1
              {
                OFFSET -1.2192 -0.487915 3.41376
                CHANNELS 3 Zrotation Xrotation Yrotation
                JOINT rThumb2
                {
                  OFFSET -3.37035 -0.52449 3.41376
                  CHANNELS 3 Zrotation Xrotation Yrotation
                  End Site
                  {
                    OFFSET -1.78271 -1.18214 1.43049
                  }
                }
              }
              JOINT rIndex1
              {
                OFFSET -7.75947 0.938293 5.60832
                CHANNELS 3 Zrotation Xrotation Yrotation
                JOINT rIndex2
                {
                  OFFSET -2.54057 -0.884171 1.56538
                  CHANNELS 3 Zrotation Xrotation Yrotation
                  End Site
                  {
                    OFFSET -1.62519 -0.234802 1.16502
                  }
                }
              }
              JOINT rMid1
              {
                OFFSET -8.24714 1.18213 3.41376
                CHANNELS 3 Zrotation Xrotation Yrotation
                JOINT rMid2
                {
                  OFFSET -3.10165 -0.590103 1.0647
                  CHANNELS 3 Zrotation Xrotation Yrotation
                  End Site
                  {
                    OFFSET -2.48547 -0.328903 0.83742
                  }
                }
              }
              JOINT rRing1
              {
                OFFSET -8.82822 0.546677 1.51678
                CHANNELS 3 Zrotation Xrotation Yrotation
                JOINT rRing2
                {
                  OFFSET -2.60934 -0.819778 -0.0198488
                  CHANNELS 3 Zrotation Xrotation Yrotation
                  End Site
                  {
                    OFFSET -2.33842 -0.294052 0.168128
                  }
                }
              }
              JOINT rPinky1
              {
                OFFSET -8.27202 -0.0477905 -0.4584
                CHANNELS 3 Zrotation Xrotation Yrotation
                JOINT rPinky2
                {
                  OFFSET -1.82734 -0.647385 -0.700984
                  CHANNELS 3 Zrotation Xrotation Yrotation
                  End Site
                  {
                    OFFSET -1.69225 -0.51767 -0.607171
                  }
                }
              }
            }
          }
        }
      }
      JOINT lCollar
      {
        OFFSET 2.68224 19.2634 -4.8768
        CHANNELS 3 Zrotation Xrotation Yrotation
        JOINT lShldr
        {
          OFFSET 8.77824 -1.95073 1.46304
          CHANNELS 3 Zrotation Xrotation Yrotation
          JOINT lForeArm
          {
            OFFSET 28.1742 -1.7115 0.48768
            CHANNELS 3 Zrotation Xrotation Yrotation
            JOINT lHand
            {
              OFFSET 22.5879 0.773209 7.07136
              CHANNELS 3 Zrotation Xrotation Yrotation
              JOINT lThumb1
              {
                OFFSET 1.2192 -0.487915 3.41376
                CHANNELS 3 Zrotation Xrotation Yrotation
                JOINT lThumb2
                {
                  OFFSET 3.37035 -0.52449 3.41376
                  CHANNELS 3 Zrotation Xrotation Yrotation
                  End Site
                  {
                    OFFSET 1.78271 -1.18214 1.43049
                  }
                }
              }
              JOINT lIndex1
              {
                OFFSET 7.75947 0.938293 5.60832
                CHANNELS 3 Zrotation Xrotation Yrotation
                JOINT lIndex2
                {
                  OFFSET 2.54057 -0.884171 1.56538
                  CHANNELS 3 Zrotation Xrotation Yrotation
                  End Site
                  {
                    OFFSET 1.62519 -0.234802 1.16502
                  }
                }
              }
              JOINT lMid1
              {
                OFFSET 8.24714 1.18213 3.41376
                CHANNELS 3 Zrotation Xrotation Yrotation
                JOINT lMid2
                {
                  OFFSET 3.10165 -0.590103 1.0647
                  CHANNELS 3 Zrotation Xrotation Yrotation
                  End Site
                  {
                    OFFSET 2.48547 -0.328903 0.83742
                  }
                }
              }
              JOINT lRing1
              {
                OFFSET 8.82822 0.546677 1.51678
                CHANNELS 3 Zrotation Xrotation Yrotation
                JOINT lRing2
                {
                  OFFSET 2.60934 -0.819778 -0.0198488
                  CHANNELS 3 Zrotation Xrotation Yrotation
                  End Site
                  {
                    OFFSET 2.33842 -0.294052 0.168128
                  }
                }
              }
              JOINT lPinky1
              {
                OFFSET 8.27202 -0.0477905 -0.4584
                CHANNELS 3 Zrotation Xrotation Yrotation
                JOINT lPinky2
                {
                  OFFSET 1.82734 -0.647385 -0.700984
                  CHANNELS 3 Zrotation Xrotation Yrotation
                  End Site
                  {
                    OFFSET 1.69225 -0.51767 -0.607171
                  }
                }
              }
            }
          }
        }
      }
    }
  }
  JOINT rButtock
  {
    OFFSET -8.77824 4.35084 1.2192
    CHANNELS 3 Zrotation Xrotation Yrotation
    JOINT rThigh
    {
      OFFSET 0 -1.70687 -2.19456
      CHANNELS 3 Zrotation Xrotation Yrotation
      JOINT rShin
      {
        OFFSET 0 -36.8199 0.73152
        CHANNELS 3 Zrotation Xrotation Yrotation
        JOINT rFoot
        {
          OFFSET 0.73152 -45.1104 -5.12064
          CHANNELS 3 Zrotation Xrotation Yrotation
          End Site
          {
            OFFSET -1.1221 -3.69964 12.103
          }
        }
      }
    }
  }
  JOINT lButtock
  {
    OFFSET 8.77824 4.35084 1.2192
    CHANNELS 3 Zrotation Xrotation Yrotation
    JOINT lThigh
    {
      OFFSET 0 -1.70687 -2.19456
      CHANNELS 3 Zrotation Xrotation Yrotation
      JOINT lShin
      {
        OFFSET 0 -36.8199 0.73152
        CHANNELS 3 Zrotation Xrotation Yrotation
        JOINT lFoot
        {
          OFFSET -0.73152 -45.1104 -5.12064
          CHANNELS 3 Zrotation Xrotation Yrotation
          End Site
          {
            OFFSET 1.1221 -3.69964 12.103
          }
        }
      }
    }
  }
}
MOTION
Frames:	8
Frame Time:	0.00833333
65.5734 84.8839 -100.468 0.0 0.0 0.0 -0.194077 -0.000752048 -0.00553942 -0.0535363 -0.00112971 -0.00927448 -2.03825e-15 0.0 4.03781e-17 -6.1499e-15 3.18055e-15 1.13369e-16 -0.0 0.0 0.0 -0.0 0.0 0.0 -1.045e-15 -3.88251e-18 9.93923e-17 -1.91185e-14 3.10601e-17 1.39149e-15 -3.67752e-13 1.10127e-13 1.27222e-14 -4.22061e-12 -1.13779e-13 7.31528e-14 -9.95451e-12 -1.086e-14 1.84472e-13 -1.71921e-11 -2.22639e-14 3.20441e-13 -9.94838e-12 -9.54166e-15 1.81292e-13 7.73091 5.47488 0.417314 -9.95563e-12 -1.11319e-14 1.90833e-13 2.90554 0.965183 0.102902 -9.9493e-12 -1.13307e-14 1.86858e-13 10.2786 0.731801 0.0259123 -9.96229e-12 -9.1441e-15 1.94014e-13 2.22167 -0.733487 -0.20892 -1.0423e-15 -4.27076e-18 -9.93923e-17 -2.38333e-14 -4.96962e-17 -5.96354e-16 -3.69889e-13 -1.12115e-13 2.22639e-14 -4.22024e-12 9.81002e-14 6.99722e-14 -9.95523e-12 -3.27031e-14 1.87653e-13 -1.71881e-11 -5.40694e-14 3.28392e-13 -9.95991e-12 -3.26007e-14 1.97194e-13 -7.73091 5.47488 -0.417314 -9.95459e-12 -3.27001e-14 1.84472e-13 -2.90554 0.965183 -0.102902 -9.96385e-12 -3.25013e-14 1.87653e-13 -10.2786 0.731801 -0.0259123 -9.94699e-12 -3.06128e-14 1.78111e-13 -2.22167 -0.733487 0.20892 -2.03217e-16 0.0 -3.88251e-19 0.355854 -2.82714 -0.0340695 -0.00665506 -0.431854 -0.0584473 -0.502544 3.25829 0.1238 2.03217e-16 0.0 3.88251e-19 -0.651361 -3.58303 0.0525571 0.00446002 0.937454 0.0381204 0.50497 2.64491 -0.111592
63.6063 83.6016 -110.549 178.824 -9.4869 -179.34 -0.253323 4.28489 2.61653 -0.737891 -1.24643 0.663992 -2.60825 0.117127 2.4804 1.12275 9.21339 2.91219 -0.0 0.0 0.0 -0.0 0.0 0.0 -7.38738e-15 -1.16918e-15 3.43649e-14 21.5116 3.86594 0.027571 -5.39261 -2.74014 8.08416 0.00272569 1.15824 0.16266 -3.49965e-10 4.21596e-10 1.25177e-12 -6.05994e-10 7.28641e-10 4.05141e-12 -3.49959e-10 4.21599e-10 1.24598e-12 7.73091 5.47488 0.417314 -3.49966e-10 4.21599e-10 1.25632e-12 2.90554 0.965183 0.102902 -3.4996e-10 4.21599e-10 1.25437e-12 10.2786 0.731801 0.0259123 -3.4997e-10 4.216e-10 1.26037e-12 2.22167 -0.733487 -0.20892 -7.37363e-15 -1.17223e-15 3.41649e-14 -21.7763 4.23264 -0.188467 5.11153 -2.53288 -7.74219 -0.00444782 1.48016 -0.207772 -2.18616e-10 -5.1662e-10 3.83343e-10 -3.75943e-10 -8.94624e-10 6.65099e-10 -2.1862e-10 -5.16619e-10 3.83353e-10 -7.73091 5.47488 -0.417314 -2.18615e-10 -5.16619e-10 3.83342e-10 -2.90554 0.965183 -0.102902 -2.18625e-10 -5.16619e-10 3.83343e-10 -10.2786 0.731801 -0.0259123 -2.18609e-10 -5.16618e-10 3.83335e-10 -2.22167 -0.733487 0.20892 -2.03217e-16 0.0 -3.88251e-19 0.832638 -7.39698 -1.77622 0.00478702 8.54716 0.0833194 -0.718737 -0.254253 -2.39925 2.03217e-16 0.0 3.88251e-19 -0.590443 -8.14589 -2.69035 0.00250149 8.01607 -0.0595493 0.398049 0.505685 -1.71684
63.6657 83.4555 -110.397 178.807 -9.7163 -179.358 -0.752368 8.78081 5.43099 -1.42678 -2.5611 1.3749 -5.37396 0.241172 5.10267 1.2379 18.8703 6.24996 -0.0 0.0 0.0 -0.0 0.0 0.0 -1.46832e-14 -2.58274e-15 7.50412e-14 44.2568 7.95952 0.0537585 -10.2598 -5.45387 16.6869 -0.00155223 2.38462 0.335114 -7.45714e-10 8.95627e-10 2.25523e-11 -1.2912e-09 1.54774e-09 4.31411e-11 -7.4571e-10 8.95632e-10 2.25438e-11 7.73091 5.47488 0.417314 -7.45716e-10 8.95632e-10 2.25549e-11 2.90554 0.965183 0.102902 -7.4571e-10 8.95632e-10 2.25551e-11 10.2786 0.731801 0.0259123 -7.45716e-10 8.95632e-10 2.25599e-11 2.22167 -0.733487 -0.20892 -1.46571e-14 -2.58874e-15 7.48393e-14 -44.7636 8.70288 -0.402152 9.77864 -5.05691 -15.9759 0.00254957 3.05015 -0.428626 -4.69628e-10 -1.13806e-09 8.13831e-10 -8.07707e-10 -1.97077e-09 1.41209e-09 -4.69631e-10 -1.13806e-09 8.13842e-10 -7.73091 5.47488 -0.417314 -4.69627e-10 -1.13806e-09 8.13834e-10 -2.90554 0.965183 -0.102902 -4.69637e-10 -1.13806e-09 8.13833e-10 -10.2786 0.731801 -0.0259123 -4.69623e-10 -1.13806e-09 8.13825e-10 -2.22167 -0.733487 0.20892 -2.03217e-16 0.0 -3.88251e-19 1.02736 -12.2037 -3.6529 -0.0334152 18.0339 0.24318 -1.28508 -3.95063 -5.08747 2.03217e-16 0.0 3.88251e-19 -1.01698 -12.9176 -5.67572 0.027452 15.4881 -0.167496 0.156406 -1.7239 -3.41743
63.7683 83.3711 -110.257 179.073 -9.992 -179.386 -1.56968 12.7472 8.0381 -2.01866 -3.73497 2.01433 -7.85508 0.348748 7.44133 0.271719 27.3361 9.71778 -0.0 0.0 0.0 -0.0 0.0 0.0 -2.00721e-14 -3.49978e-15 1.02896e-13 64.5233 11.5978 0.0842447 -13.9183 -7.56721 24.4512 -0.0115827 3.4746 0.488778 -1.02999e-09 1.26481e-09 3.38636e-12 -1.7836e-09 2.18597e-09 1.15133e-11 -1.02998e-09 1.26482e-09 3.37536e-12 7.73091 5.47488 0.417314 -1.02999e-09 1.26482e-09 3.38729e-12 2.90554 0.965183 0.102902 -1.02998e-09 1.26482e-09 3.3894e-12 10.2786 0.731801 0.0259123 -1.02998e-09 1.26482e-09 3.39307e-12 2.22167 -0.733487 -0.20892 -2.00363e-14 -3.50815e-15 1.02694e-13 -65.2435 12.6974 -0.577996 13.3306 -7.04487 -23.3907 0.0189434 4.44023 -0.624984 -6.35938e-10 -1.54979e-09 1.14965e-09 -1.09345e-09 -2.68376e-09 1.99464e-09 -6.3594e-10 -1.54979e-09 1.14966e-09 -7.73091 5.47488 -0.417314 -6.35936e-10 -1.54979e-09 1.14966e-09 -2.90554 0.965183 -0.102902 -6.35947e-10 -1.54979e-09 1.14966e-09 -10.2786 0.731801 -0.0259123 -6.35934e-10 -1.54979e-09 1.14965e-09 -2.22167 -0.733487 0.20892 -2.03217e-16 0.0 -3.88251e-19 0.921811 -16.4767 -5.44027 -0.11762 26.5046 0.406833 -2.08155 -7.21832 -7.50468 2.03217e-16 0.0 3.88251e-19 -1.82847 -17.1205 -8.47248 0.0755882 22.1731 -0.273348 -0.175428 -3.75813 -4.93803
63.8164 83.3487 -110.075 179.088 -10.1803 -179.269 -2.33663 15.4922 9.95974 -2.42958 -4.55874 2.4715 -9.60299 0.417711 9.07084 -1.12194 33.1103 12.5859 -0.0 0.0 0.0 -0.0 0.0 0.0 -2.06938e-14 -3.17551e-15 9.86966e-14 78.5986 14.0979 0.124436 -16.1218 -8.8009 29.9302 -0.0219298 4.22371 0.594693 -1.03556e-09 1.37187e-09 -1.16946e-10 -1.79399e-09 2.37202e-09 -1.96908e-10 -1.03556e-09 1.37188e-09 -1.16959e-10 7.73091 5.47488 0.417314 -1.03556e-09 1.37188e-09 -1.16946e-10 2.90554 0.965183 0.102902 -1.03556e-09 1.37189e-09 -1.16943e-10 10.2786 0.731801 0.0259123 -1.03556e-09 1.37188e-09 -1.16939e-10 2.22167 -0.733487 -0.20892 -2.06547e-14 -3.18483e-15 9.84978e-14 -79.5239 15.5031 -0.645613 15.4891 -8.2211 -28.6013 0.0356415 5.38076 -0.75847 -5.9049e-10 -1.43726e-09 1.24881e-09 -1.01415e-09 -2.48886e-09 2.16609e-09 -5.90491e-10 -1.43726e-09 1.24882e-09 -7.73091 5.47488 -0.417314 -5.90488e-10 -1.43726e-09 1.24882e-09 -2.90554 0.965183 -0.102902 -5.90499e-10 -1.43726e-09 1.24881e-09 -10.2786 0.731801 -0.0259123 -5.90487e-10 -1.43726e-09 1.24881e-09 -2.22167 -0.733487 0.20892 -2.03217e-16 0.0 -3.88251e-19 0.669037 -19.4679 -6.84838 -0.210935 32.436 0.541376 -2.79136 -9.4785 -9.17414 2.03217e-16 0.0 3.88251e-19 -2.63339 -20.0383 -10.5379 0.126345 26.8906 -0.356597 -0.485933 -5.31873 -5.99577
63.8703 83.3302 -109.866 179.048 -10.3643 -179.118 -2.63978 16.6023 10.8173 -2.62648 -4.89273 2.67449 -10.3086 0.43364 9.69574 -1.82809 35.3517 13.8288 -0.0 0.0 0.0 -0.0 0.0 0.0 -1.39689e-14 -5.51162e-15 4.86537e-14 84.0195 14.987 0.169656 -16.9256 -9.23132 32.1177 -0.0265487 4.50085 0.633957 -5.78312e-10 1.03779e-09 -3.99669e-10 -1.00387e-09 1.79701e-09 -6.89295e-10 -5.78308e-10 1.0378e-09 -3.99683e-10 7.73091 5.47488 0.417314 -5.78315e-10 1.0378e-09 -3.99669e-10 2.90554 0.965183 0.102902 -5.7831e-10 1.0378e-09 -3.99666e-10 10.2786 0.731801 0.0259123 -5.7831e-10 1.0378e-09 -3.99662e-10 2.22167 -0.733487 -0.20892 -1.39375e-14 -5.51968e-15 4.84639e-14 -85.1403 16.6925 -0.548241 16.2723 -8.62918 -30.6586 0.0420131 5.65883 -0.798089 -2.07792e-10 -4.87653e-10 9.46534e-10 -3.53573e-10 -8.44222e-10 1.64047e-09 -2.07793e-10 -4.87653e-10 9.46547e-10 -7.73091 5.47488 -0.417314 -2.0779e-10 -4.87652e-10 9.4654e-10 -2.90554 0.965183 -0.102902 -2.078e-10 -4.87652e-10 9.46536e-10 -10.2786 0.731801 -0.0259123 -2.0779e-10 -4.87652e-10 9.4653e-10 -2.22167 -0.733487 0.20892 -2.03217e-16 0.0 -3.88251e-19 0.497188 -20.7125 -7.63682 -0.258154 34.8446 0.602194 -3.08561 -10.4001 -9.73562 2.03217e-16 0.0 3.88251e-19 -2.96732 -21.2516 -11.4026 0.151569 28.8169 -0.393486 -0.658916 -6.24087 -6.40792
63.9618 83.3611 -109.704 179.19 -10.5139 -179.144 -2.51341 16.5677 10.8779 -2.67663 -4.87734 2.69499 -10.2681 0.412192 9.60359 -1.68146 35.1473 13.6601 -0.0 0.0 0.0 -0.0 0.0 0.0 -2.02841e-15 -9.53858e-15 -3.40885e-14 83.2603 14.7264 0.218199 -16.8635 -9.20942 31.9311 -0.0256808 4.44063 0.62543 2.06065e-10 3.92127e-10 -7.97398e-10 3.52049e-10 6.845e-10 -1.38278e-09 2.06069e-10 3.92133e-10 -7.97412e-10 7.73091 5.47488 0.417314 2.06062e-10 3.92134e-10 -7.97397e-10 2.90554 0.965183 0.102902 2.06066e-10 3.92135e-10 -7.97395e-10 10.2786 0.731801 0.0259123 2.06064e-10 3.92137e-10 -7.9739e-10 2.22167 -0.733487 -0.20892 -2.01261e-15 -9.5438e-15 -3.42655e-14 -84.5726 16.7249 -0.331473 16.1929 -8.59059 -30.4431 0.0389508 5.46534 -0.770605 4.13856e-10 1.05496e-09 3.60858e-10 7.18863e-10 1.82743e-09 6.22712e-10 4.13855e-10 1.05496e-09 3.60873e-10 -7.73091 5.47488 -0.417314 4.13857e-10 1.05496e-09 3.60862e-10 -2.90554 0.965183 -0.102902 4.13848e-10 1.05496e-09 3.60859e-10 -10.2786 0.731801 -0.0259123 4.13859e-10 1.05496e-09 3.60854e-10 -2.22167 -0.733487 0.20892 -2.03217e-16 0.0 -3.88251e-19 0.463161 -20.7217 -7.94697 -0.255083 34.7354 0.598495 -3.01485 -10.3784 -9.48825 2.03217e-16 0.0 3.88251e-19 -2.84941 -21.2766 -11.3587 0.150612 28.7512 -0.39264 -0.703408 -6.71022 -6.35377
64.0464 83.4274 -109.56 179.317 -10.5695 -179.209 -2.2123 16.0738 10.5955 -2.64948 -4.72385 2.63686 -9.93946 0.376918 9.24341 -1.21405 33.9621 12.9703 -0.0 0.0 0.0 -0.0 0.0 0.0 1.09223e-14 -7.20471e-15 -1.28362e-13 80.0148 14.0336 0.279946 -16.4501 -9.00154 30.7798 -0.0225856 4.2372 0.596625 1.00506e-09 -2.59467e-10 -1.20792e-09 1.73318e-09 -4.38222e-10 -2.09837e-09 1.00506e-09 -2.59463e-10 -1.20793e-09 7.73091 5.47488 0.417314 1.00505e-09 -2.59462e-10 -1.20791e-09 2.90554 0.965183 0.102902 1.00506e-09 -2.59461e-10 -1.20791e-09 10.2786 0.731801 0.0259123 1.00505e-09 -2.59457e-10 -1.20791e-09 2.22167 -0.733487 -0.20892 1.09226e-14 -7.20681e-15 -1.28524e-13 -81.551 16.2182 -0.0747625 15.755 -8.36129 -29.289 0.0332667 5.1364 -0.723885 1.06582e-09 2.6698e-09 -2.26015e-10 1.84369e-09 4.62401e-09 -3.97425e-10 1.06582e-09 2.6698e-09 -2.26e-10 -7.73091 5.47488 -0.417314 1.06582e-09 2.6698e-09 -2.26014e-10 -2.90554 0.965183 -0.102902 1.06581e-09 2.6698e-09 -2.26015e-10 -10.2786 0.731801 -0.0259123 1.06582e-09 2.6698e-09 -2.2602e-10 -2.22167 -0.733487 0.20892 -2.03217e-16 0.0 -3.88251e-19 0.49841 -20.2207 -8.03245 -0.230675 33.5683 0.567478 -2.79561 -9.94128 -8.92212 2.03217e-16 0.0 3.88251e-19 -2.55311 -20.8284 -10.9574 0.139751 27.948 -0.377918 -0.68505 -6.97798 -6.08926
